<svg width="1608" height="1394" viewBox="0 0 1608 1394" fill="none" xmlns="http://www.w3.org/2000/svg">
<g filter="url(#filter0_d_20_4)">
<mask id="path-1-inside-1_20_4" fill="white">
<path d="M1416.67 879.577C1452.46 879.721 1487.55 869.566 1517.73 850.322C1547.91 831.078 1571.92 803.558 1586.89 771.044C1601.87 738.531 1607.17 702.397 1602.17 666.952C1597.17 631.508 1582.09 598.249 1558.71 571.143C1535.33 544.037 1504.65 524.229 1470.32 514.08C1435.99 503.932 1399.47 503.872 1365.11 513.908C1330.75 523.943 1300 543.651 1276.53 570.68C1253.07 597.709 1237.87 630.918 1232.76 666.346H960.884C954.2 626.808 932.907 591.223 901.224 566.644C869.542 542.064 829.781 530.284 789.822 533.637C749.863 536.991 712.621 555.233 685.478 584.749C658.335 614.265 643.271 652.901 643.271 693C643.271 733.099 658.335 771.735 685.478 801.251C712.621 830.767 749.863 849.01 789.822 852.363C829.781 855.716 869.542 843.936 901.224 819.357C932.907 794.777 954.2 759.192 960.884 719.654H1232.76C1235.94 746.213 1245.05 771.718 1259.41 794.285L904.91 1103.47C876.854 1079.05 840.816 1065.78 803.624 1066.15C769.17 1067.03 735.761 1078.17 707.669 1098.14L435.797 836.931C466.603 795.232 483.399 744.842 483.774 693C484.352 642.249 468.453 592.681 438.462 551.735L683.681 330.508C717.538 358.147 759.918 373.215 803.624 373.154C840.526 373.154 876.599 362.211 907.282 341.71C937.965 321.209 961.879 292.069 976.001 257.977C990.122 223.884 993.817 186.37 986.618 150.178C979.419 113.985 961.649 80.7405 935.555 54.6472C909.462 28.554 876.217 10.7842 840.024 3.58511C803.831 -3.614 766.316 0.0808406 732.223 14.2024C698.131 28.324 668.991 52.238 648.489 82.9204C627.988 113.603 617.045 149.676 617.045 186.577C616.639 223.71 627.82 260.045 649.03 290.527L403.812 514.419C359.732 475.217 302.877 453.423 243.887 453.115C180.265 453.115 119.249 478.389 74.2613 523.376C29.2738 568.363 4 629.379 4 693C4 756.621 29.2738 817.637 74.2613 862.624C119.249 907.611 180.265 932.885 243.887 932.885C300.324 932.573 354.927 912.803 398.481 876.912L670.353 1135.45C653.496 1162.72 644.289 1194.02 643.699 1226.08C643.699 1268.49 660.548 1309.17 690.54 1339.16C720.532 1369.15 761.209 1386 803.624 1386C846.039 1386 886.716 1369.15 916.708 1339.16C946.7 1309.17 963.549 1268.49 963.549 1226.08C963.836 1196.78 955.493 1168.04 939.56 1143.45L1294.06 834.265C1312.32 849.306 1333.06 861.033 1355.36 868.915L1307.39 1119.46C1281.15 1119.99 1255.65 1128.25 1234.09 1143.21C1212.52 1158.16 1195.86 1179.16 1186.18 1203.55C1176.5 1227.94 1174.24 1254.65 1179.68 1280.33C1185.12 1306 1198.01 1329.5 1216.75 1347.87C1235.49 1366.24 1259.24 1378.67 1285.02 1383.6C1310.79 1388.53 1337.45 1385.74 1361.65 1375.58C1385.85 1365.42 1406.51 1348.34 1421.04 1326.49C1435.56 1304.63 1443.32 1278.97 1443.32 1252.73C1443.55 1226.34 1435.78 1200.5 1421.03 1178.61C1406.28 1156.72 1385.24 1139.82 1360.7 1130.12L1408.67 879.577H1416.67ZM803.624 799.615C782.537 799.615 761.924 793.363 744.391 781.648C726.858 769.932 713.193 753.281 705.123 733.8C697.054 714.319 694.942 692.882 699.056 672.2C703.17 651.519 713.324 632.522 728.235 617.612C743.145 602.701 762.143 592.547 782.824 588.433C803.506 584.319 824.943 586.431 844.425 594.5C863.906 602.57 880.557 616.235 892.273 633.768C903.988 651.301 910.241 671.914 910.241 693C910.241 721.276 899.008 748.394 879.013 768.389C859.019 788.383 831.901 799.615 803.624 799.615ZM1390.02 1252.73C1390.02 1268.55 1385.33 1284.01 1376.54 1297.16C1367.75 1310.3 1355.26 1320.55 1340.65 1326.61C1326.04 1332.66 1309.96 1334.24 1294.45 1331.16C1278.94 1328.07 1264.69 1320.45 1253.51 1309.27C1242.33 1298.09 1234.71 1283.84 1231.63 1268.33C1228.54 1252.82 1230.13 1236.74 1236.18 1222.13C1242.23 1207.52 1252.48 1195.03 1265.63 1186.25C1278.78 1177.46 1294.24 1172.77 1310.05 1172.77C1320.65 1172.4 1331.22 1174.21 1341.09 1178.1C1350.96 1181.98 1359.92 1187.86 1367.42 1195.36C1374.92 1202.86 1380.8 1211.83 1384.69 1221.7C1388.57 1231.57 1390.39 1242.13 1390.02 1252.73ZM803.624 53.3078C829.983 53.3078 855.749 61.1239 877.665 75.7677C899.582 90.4115 916.663 111.225 926.75 135.577C936.837 159.929 939.476 186.725 934.334 212.577C929.192 238.428 916.499 262.175 897.861 280.813C879.223 299.451 855.476 312.143 829.624 317.285C803.772 322.428 776.976 319.789 752.624 309.702C728.272 299.615 707.458 282.533 692.814 260.617C678.17 238.701 670.353 212.935 670.353 186.577C670.353 151.232 684.394 117.334 709.388 92.3414C734.381 67.3486 768.279 53.3078 803.624 53.3078ZM243.887 879.577C206.985 879.577 170.912 868.634 140.23 848.133C109.547 827.632 85.6325 798.492 71.5108 764.4C57.389 730.307 53.6941 692.793 60.8933 656.601C68.0925 620.408 85.8625 587.164 111.956 561.07C138.05 534.977 171.295 517.207 207.488 510.008C243.68 502.809 281.195 506.504 315.288 520.625C349.381 534.747 378.52 558.661 399.022 589.343C419.524 620.026 430.466 656.099 430.466 693C430.466 742.483 410.809 789.94 375.818 824.93C340.828 859.92 293.371 879.577 243.887 879.577ZM803.624 1332.69C782.537 1332.69 761.924 1326.44 744.391 1314.72C726.858 1303.01 713.193 1286.36 705.123 1266.88C697.054 1247.4 694.942 1225.96 699.056 1205.28C703.17 1184.6 713.324 1165.6 728.235 1150.69C743.145 1135.78 762.143 1125.62 782.824 1121.51C803.506 1117.4 824.943 1119.51 844.425 1127.58C863.906 1135.65 880.557 1149.31 892.273 1166.84C903.988 1184.38 910.241 1204.99 910.241 1226.08C910.241 1254.35 899.008 1281.47 879.013 1301.47C859.019 1321.46 831.901 1332.69 803.624 1332.69ZM1283.4 693C1283.4 666.642 1291.21 640.876 1305.86 618.96C1320.5 597.044 1341.32 579.962 1365.67 569.875C1390.02 559.789 1416.82 557.149 1442.67 562.292C1468.52 567.434 1492.27 580.126 1510.91 598.764C1529.54 617.403 1542.24 641.149 1547.38 667.001C1552.52 692.852 1549.88 719.648 1539.8 744C1529.71 768.352 1512.63 789.166 1490.71 803.809C1468.79 818.453 1443.03 826.269 1416.67 826.269C1381.32 826.269 1347.43 812.228 1322.43 787.236C1297.44 762.243 1283.4 728.345 1283.4 693Z"/>
</mask>
<path d="M1416.67 879.577C1452.46 879.721 1487.55 869.566 1517.73 850.322C1547.91 831.078 1571.92 803.558 1586.89 771.044C1601.87 738.531 1607.17 702.397 1602.17 666.952C1597.17 631.508 1582.09 598.249 1558.71 571.143C1535.33 544.037 1504.65 524.229 1470.32 514.08C1435.99 503.932 1399.47 503.872 1365.11 513.908C1330.75 523.943 1300 543.651 1276.53 570.68C1253.07 597.709 1237.87 630.918 1232.76 666.346H960.884C954.2 626.808 932.907 591.223 901.224 566.644C869.542 542.064 829.781 530.284 789.822 533.637C749.863 536.991 712.621 555.233 685.478 584.749C658.335 614.265 643.271 652.901 643.271 693C643.271 733.099 658.335 771.735 685.478 801.251C712.621 830.767 749.863 849.01 789.822 852.363C829.781 855.716 869.542 843.936 901.224 819.357C932.907 794.777 954.2 759.192 960.884 719.654H1232.76C1235.94 746.213 1245.05 771.718 1259.41 794.285L904.91 1103.47C876.854 1079.05 840.816 1065.78 803.624 1066.15C769.17 1067.03 735.761 1078.17 707.669 1098.14L435.797 836.931C466.603 795.232 483.399 744.842 483.774 693C484.352 642.249 468.453 592.681 438.462 551.735L683.681 330.508C717.538 358.147 759.918 373.215 803.624 373.154C840.526 373.154 876.599 362.211 907.282 341.71C937.965 321.209 961.879 292.069 976.001 257.977C990.122 223.884 993.817 186.37 986.618 150.178C979.419 113.985 961.649 80.7405 935.555 54.6472C909.462 28.554 876.217 10.7842 840.024 3.58511C803.831 -3.614 766.316 0.0808406 732.223 14.2024C698.131 28.324 668.991 52.238 648.489 82.9204C627.988 113.603 617.045 149.676 617.045 186.577C616.639 223.71 627.82 260.045 649.03 290.527L403.812 514.419C359.732 475.217 302.877 453.423 243.887 453.115C180.265 453.115 119.249 478.389 74.2613 523.376C29.2738 568.363 4 629.379 4 693C4 756.621 29.2738 817.637 74.2613 862.624C119.249 907.611 180.265 932.885 243.887 932.885C300.324 932.573 354.927 912.803 398.481 876.912L670.353 1135.45C653.496 1162.72 644.289 1194.02 643.699 1226.08C643.699 1268.49 660.548 1309.17 690.54 1339.16C720.532 1369.15 761.209 1386 803.624 1386C846.039 1386 886.716 1369.15 916.708 1339.16C946.7 1309.17 963.549 1268.49 963.549 1226.08C963.836 1196.78 955.493 1168.04 939.56 1143.45L1294.06 834.265C1312.32 849.306 1333.06 861.033 1355.36 868.915L1307.39 1119.46C1281.15 1119.99 1255.65 1128.25 1234.09 1143.21C1212.52 1158.16 1195.86 1179.16 1186.18 1203.55C1176.5 1227.94 1174.24 1254.65 1179.68 1280.33C1185.12 1306 1198.01 1329.5 1216.75 1347.87C1235.49 1366.24 1259.24 1378.67 1285.02 1383.6C1310.79 1388.53 1337.45 1385.74 1361.65 1375.58C1385.85 1365.42 1406.51 1348.34 1421.04 1326.49C1435.56 1304.63 1443.32 1278.97 1443.32 1252.73C1443.55 1226.34 1435.78 1200.5 1421.03 1178.61C1406.28 1156.72 1385.24 1139.82 1360.7 1130.12L1408.67 879.577H1416.67ZM803.624 799.615C782.537 799.615 761.924 793.363 744.391 781.648C726.858 769.932 713.193 753.281 705.123 733.8C697.054 714.319 694.942 692.882 699.056 672.2C703.17 651.519 713.324 632.522 728.235 617.612C743.145 602.701 762.143 592.547 782.824 588.433C803.506 584.319 824.943 586.431 844.425 594.5C863.906 602.57 880.557 616.235 892.273 633.768C903.988 651.301 910.241 671.914 910.241 693C910.241 721.276 899.008 748.394 879.013 768.389C859.019 788.383 831.901 799.615 803.624 799.615ZM1390.02 1252.73C1390.02 1268.55 1385.33 1284.01 1376.54 1297.16C1367.75 1310.3 1355.26 1320.55 1340.65 1326.61C1326.04 1332.66 1309.96 1334.24 1294.45 1331.16C1278.94 1328.07 1264.69 1320.45 1253.51 1309.27C1242.33 1298.09 1234.71 1283.84 1231.63 1268.33C1228.54 1252.82 1230.13 1236.74 1236.18 1222.13C1242.23 1207.52 1252.48 1195.03 1265.63 1186.25C1278.78 1177.46 1294.24 1172.77 1310.05 1172.77C1320.65 1172.4 1331.22 1174.21 1341.09 1178.1C1350.96 1181.98 1359.92 1187.86 1367.42 1195.36C1374.92 1202.86 1380.8 1211.83 1384.69 1221.7C1388.57 1231.57 1390.39 1242.13 1390.02 1252.73ZM803.624 53.3078C829.983 53.3078 855.749 61.1239 877.665 75.7677C899.582 90.4115 916.663 111.225 926.75 135.577C936.837 159.929 939.476 186.725 934.334 212.577C929.192 238.428 916.499 262.175 897.861 280.813C879.223 299.451 855.476 312.143 829.624 317.285C803.772 322.428 776.976 319.789 752.624 309.702C728.272 299.615 707.458 282.533 692.814 260.617C678.17 238.701 670.353 212.935 670.353 186.577C670.353 151.232 684.394 117.334 709.388 92.3414C734.381 67.3486 768.279 53.3078 803.624 53.3078ZM243.887 879.577C206.985 879.577 170.912 868.634 140.23 848.133C109.547 827.632 85.6325 798.492 71.5108 764.4C57.389 730.307 53.6941 692.793 60.8933 656.601C68.0925 620.408 85.8625 587.164 111.956 561.07C138.05 534.977 171.295 517.207 207.488 510.008C243.68 502.809 281.195 506.504 315.288 520.625C349.381 534.747 378.52 558.661 399.022 589.343C419.524 620.026 430.466 656.099 430.466 693C430.466 742.483 410.809 789.94 375.818 824.93C340.828 859.92 293.371 879.577 243.887 879.577ZM803.624 1332.69C782.537 1332.69 761.924 1326.44 744.391 1314.72C726.858 1303.01 713.193 1286.36 705.123 1266.88C697.054 1247.4 694.942 1225.96 699.056 1205.28C703.17 1184.6 713.324 1165.6 728.235 1150.69C743.145 1135.78 762.143 1125.62 782.824 1121.51C803.506 1117.4 824.943 1119.51 844.425 1127.58C863.906 1135.65 880.557 1149.31 892.273 1166.84C903.988 1184.38 910.241 1204.99 910.241 1226.08C910.241 1254.35 899.008 1281.47 879.013 1301.47C859.019 1321.46 831.901 1332.69 803.624 1332.69ZM1283.4 693C1283.4 666.642 1291.21 640.876 1305.86 618.96C1320.5 597.044 1341.32 579.962 1365.67 569.875C1390.02 559.789 1416.82 557.149 1442.67 562.292C1468.52 567.434 1492.27 580.126 1510.91 598.764C1529.54 617.403 1542.24 641.149 1547.38 667.001C1552.52 692.852 1549.88 719.648 1539.8 744C1529.71 768.352 1512.63 789.166 1490.71 803.809C1468.79 818.453 1443.03 826.269 1416.67 826.269C1381.32 826.269 1347.43 812.228 1322.43 787.236C1297.44 762.243 1283.4 728.345 1283.4 693Z" fill="url(#paint0_linear_20_4)"/>
<path d="M1416.67 879.577C1452.46 879.721 1487.55 869.566 1517.73 850.322C1547.91 831.078 1571.92 803.558 1586.89 771.044C1601.87 738.531 1607.17 702.397 1602.17 666.952C1597.17 631.508 1582.09 598.249 1558.71 571.143C1535.33 544.037 1504.65 524.229 1470.32 514.08C1435.99 503.932 1399.47 503.872 1365.11 513.908C1330.75 523.943 1300 543.651 1276.53 570.68C1253.07 597.709 1237.87 630.918 1232.76 666.346H960.884C954.2 626.808 932.907 591.223 901.224 566.644C869.542 542.064 829.781 530.284 789.822 533.637C749.863 536.991 712.621 555.233 685.478 584.749C658.335 614.265 643.271 652.901 643.271 693C643.271 733.099 658.335 771.735 685.478 801.251C712.621 830.767 749.863 849.01 789.822 852.363C829.781 855.716 869.542 843.936 901.224 819.357C932.907 794.777 954.2 759.192 960.884 719.654H1232.76C1235.94 746.213 1245.05 771.718 1259.41 794.285L904.91 1103.47C876.854 1079.05 840.816 1065.78 803.624 1066.15C769.17 1067.03 735.761 1078.17 707.669 1098.14L435.797 836.931C466.603 795.232 483.399 744.842 483.774 693C484.352 642.249 468.453 592.681 438.462 551.735L683.681 330.508C717.538 358.147 759.918 373.215 803.624 373.154C840.526 373.154 876.599 362.211 907.282 341.71C937.965 321.209 961.879 292.069 976.001 257.977C990.122 223.884 993.817 186.37 986.618 150.178C979.419 113.985 961.649 80.7405 935.555 54.6472C909.462 28.554 876.217 10.7842 840.024 3.58511C803.831 -3.614 766.316 0.0808406 732.223 14.2024C698.131 28.324 668.991 52.238 648.489 82.9204C627.988 113.603 617.045 149.676 617.045 186.577C616.639 223.71 627.82 260.045 649.03 290.527L403.812 514.419C359.732 475.217 302.877 453.423 243.887 453.115C180.265 453.115 119.249 478.389 74.2613 523.376C29.2738 568.363 4 629.379 4 693C4 756.621 29.2738 817.637 74.2613 862.624C119.249 907.611 180.265 932.885 243.887 932.885C300.324 932.573 354.927 912.803 398.481 876.912L670.353 1135.45C653.496 1162.72 644.289 1194.02 643.699 1226.08C643.699 1268.49 660.548 1309.17 690.54 1339.16C720.532 1369.15 761.209 1386 803.624 1386C846.039 1386 886.716 1369.15 916.708 1339.16C946.7 1309.17 963.549 1268.49 963.549 1226.08C963.836 1196.78 955.493 1168.04 939.56 1143.45L1294.06 834.265C1312.32 849.306 1333.06 861.033 1355.36 868.915L1307.39 1119.46C1281.15 1119.99 1255.65 1128.25 1234.09 1143.21C1212.52 1158.16 1195.86 1179.16 1186.18 1203.55C1176.5 1227.94 1174.24 1254.65 1179.68 1280.33C1185.12 1306 1198.01 1329.5 1216.75 1347.87C1235.49 1366.24 1259.24 1378.67 1285.02 1383.6C1310.79 1388.53 1337.45 1385.74 1361.65 1375.58C1385.85 1365.42 1406.51 1348.34 1421.04 1326.49C1435.56 1304.63 1443.32 1278.97 1443.32 1252.73C1443.55 1226.34 1435.78 1200.5 1421.03 1178.61C1406.28 1156.72 1385.24 1139.82 1360.7 1130.12L1408.67 879.577H1416.67ZM803.624 799.615C782.537 799.615 761.924 793.363 744.391 781.648C726.858 769.932 713.193 753.281 705.123 733.8C697.054 714.319 694.942 692.882 699.056 672.2C703.17 651.519 713.324 632.522 728.235 617.612C743.145 602.701 762.143 592.547 782.824 588.433C803.506 584.319 824.943 586.431 844.425 594.5C863.906 602.57 880.557 616.235 892.273 633.768C903.988 651.301 910.241 671.914 910.241 693C910.241 721.276 899.008 748.394 879.013 768.389C859.019 788.383 831.901 799.615 803.624 799.615ZM1390.02 1252.73C1390.02 1268.55 1385.33 1284.01 1376.54 1297.16C1367.75 1310.3 1355.26 1320.55 1340.65 1326.61C1326.04 1332.66 1309.96 1334.24 1294.45 1331.16C1278.94 1328.07 1264.69 1320.45 1253.51 1309.27C1242.33 1298.09 1234.71 1283.84 1231.63 1268.33C1228.54 1252.82 1230.13 1236.74 1236.18 1222.13C1242.23 1207.52 1252.48 1195.03 1265.63 1186.25C1278.78 1177.46 1294.24 1172.77 1310.05 1172.77C1320.65 1172.4 1331.22 1174.21 1341.09 1178.1C1350.96 1181.98 1359.92 1187.86 1367.42 1195.36C1374.92 1202.86 1380.8 1211.83 1384.69 1221.7C1388.57 1231.57 1390.39 1242.13 1390.02 1252.73ZM803.624 53.3078C829.983 53.3078 855.749 61.1239 877.665 75.7677C899.582 90.4115 916.663 111.225 926.75 135.577C936.837 159.929 939.476 186.725 934.334 212.577C929.192 238.428 916.499 262.175 897.861 280.813C879.223 299.451 855.476 312.143 829.624 317.285C803.772 322.428 776.976 319.789 752.624 309.702C728.272 299.615 707.458 282.533 692.814 260.617C678.17 238.701 670.353 212.935 670.353 186.577C670.353 151.232 684.394 117.334 709.388 92.3414C734.381 67.3486 768.279 53.3078 803.624 53.3078ZM243.887 879.577C206.985 879.577 170.912 868.634 140.23 848.133C109.547 827.632 85.6325 798.492 71.5108 764.4C57.389 730.307 53.6941 692.793 60.8933 656.601C68.0925 620.408 85.8625 587.164 111.956 561.07C138.05 534.977 171.295 517.207 207.488 510.008C243.68 502.809 281.195 506.504 315.288 520.625C349.381 534.747 378.52 558.661 399.022 589.343C419.524 620.026 430.466 656.099 430.466 693C430.466 742.483 410.809 789.94 375.818 824.93C340.828 859.92 293.371 879.577 243.887 879.577ZM803.624 1332.69C782.537 1332.69 761.924 1326.44 744.391 1314.72C726.858 1303.01 713.193 1286.36 705.123 1266.88C697.054 1247.4 694.942 1225.96 699.056 1205.28C703.17 1184.6 713.324 1165.6 728.235 1150.69C743.145 1135.78 762.143 1125.62 782.824 1121.51C803.506 1117.4 824.943 1119.51 844.425 1127.58C863.906 1135.65 880.557 1149.31 892.273 1166.84C903.988 1184.38 910.241 1204.99 910.241 1226.08C910.241 1254.35 899.008 1281.47 879.013 1301.47C859.019 1321.46 831.901 1332.69 803.624 1332.69ZM1283.4 693C1283.4 666.642 1291.21 640.876 1305.86 618.96C1320.5 597.044 1341.32 579.962 1365.67 569.875C1390.02 559.789 1416.82 557.149 1442.67 562.292C1468.52 567.434 1492.27 580.126 1510.91 598.764C1529.54 617.403 1542.24 641.149 1547.38 667.001C1552.52 692.852 1549.88 719.648 1539.8 744C1529.71 768.352 1512.63 789.166 1490.71 803.809C1468.79 818.453 1443.03 826.269 1416.67 826.269C1381.32 826.269 1347.43 812.228 1322.43 787.236C1297.44 762.243 1283.4 728.345 1283.4 693Z" stroke="white" stroke-width="2" mask="url(#path-1-inside-1_20_4)"/>
</g>
<defs>
<filter id="filter0_d_20_4" x="0" y="0" width="1608" height="1394" filterUnits="userSpaceOnUse" color-interpolation-filters="sRGB">
<feFlood flood-opacity="0" result="BackgroundImageFix"/>
<feColorMatrix in="SourceAlpha" type="matrix" values="0 0 0 0 0 0 0 0 0 0 0 0 0 0 0 0 0 0 127 0" result="hardAlpha"/>
<feOffset dy="4"/>
<feGaussianBlur stdDeviation="2"/>
<feComposite in2="hardAlpha" operator="out"/>
<feColorMatrix type="matrix" values="0 0 0 0 0 0 0 0 0 0 0 0 0 0 0 0 0 0 0.25 0"/>
<feBlend mode="normal" in2="BackgroundImageFix" result="effect1_dropShadow_20_4"/>
<feBlend mode="normal" in="SourceGraphic" in2="effect1_dropShadow_20_4" result="shape"/>
</filter>
<linearGradient id="paint0_linear_20_4" x1="804" y1="0" x2="804" y2="1386" gradientUnits="userSpaceOnUse">
<stop stop-color="#D286EA"/>
<stop offset="1" stop-color="#7281EE"/>
</linearGradient>
</defs>
</svg>
