<svg width="33" height="33" viewBox="0 0 33 33" fill="none" xmlns="http://www.w3.org/2000/svg">
<path fill-rule="evenodd" clip-rule="evenodd" d="M16.7206 0.001867C13.3826 -0.0484207 10.1083 0.918228 7.33262 2.7734C0.800607 7.13809 -1.75494 15.5552 1.25304 22.814C4.25866 30.0727 12.0125 34.2159 19.7168 32.6828C27.4223 31.151 33 24.3541 33 16.4967C32.9998 16.4675 32.9974 16.4384 32.9929 16.4095V14.7292C32.9929 14.5729 32.9309 14.423 32.8204 14.3125C32.7099 14.2021 32.5601 14.14 32.4038 14.14H18.2653C18.109 14.14 17.9592 14.2021 17.8487 14.3125C17.7382 14.423 17.6762 14.5729 17.6762 14.7292V19.4427C17.6762 19.5989 17.7382 19.7488 17.8487 19.8593C17.9592 19.9698 18.109 20.0318 18.2653 20.0318H26.5952C25.3664 23.5481 22.4385 26.3043 18.6011 27.0667C16.1552 27.5593 13.6143 27.1855 11.4138 26.0095C9.2134 24.8335 7.49061 22.9284 6.54086 20.621C5.58076 18.3181 5.45177 15.7528 6.17602 13.3652C6.90027 10.9776 8.43263 8.91641 10.5103 7.5352C12.5812 6.14398 15.0717 5.51682 17.5544 5.76128C20.0372 6.00574 22.3575 7.10659 24.1175 8.87501C24.2279 8.98547 24.3777 9.04752 24.534 9.04752C24.6902 9.04752 24.84 8.98547 24.9504 8.87501L28.167 5.66041C28.2774 5.54992 28.3395 5.40009 28.3395 5.24386C28.3395 5.08763 28.2774 4.93779 28.167 4.8273C25.1352 1.79641 21.0422 0.0659759 16.756 0.00304529C16.7481 0.00288816 16.7403 0.00288816 16.7324 0.00304529L16.7206 0.001867ZM16.7053 1.17788V1.18024C17.1354 1.18024 17.5678 1.21088 17.9978 1.25094C21.2391 1.57146 24.3319 2.99729 26.8438 5.31633L24.4603 7.69664C20.4143 4.04368 14.4337 3.49221 9.85636 6.55362C8.73705 7.3007 7.78741 8.21394 7.00508 9.23441L4.40123 7.10981C5.40655 5.80393 6.61697 4.66976 7.98535 3.75145C10.5629 2.02821 13.6041 1.13094 16.7041 1.17906L16.7053 1.17788ZM3.71669 8.07136L6.33114 10.2019C5.44265 11.6368 4.86856 13.2438 4.64678 14.9169C4.425 16.5901 4.56056 18.2912 5.04453 19.9081L2.21918 22.0245C1.34034 19.7474 1.01774 17.2934 1.2782 14.8665C1.53866 12.4396 2.37466 10.11 3.71669 8.07136ZM18.8544 15.316H31.8147V16.4944C31.8152 16.505 31.816 16.5156 31.8171 16.5262C31.807 20.1634 30.5017 23.678 28.1352 26.4398L25.5207 24.3117C26.7106 22.9505 27.5749 21.3362 28.048 19.5911C28.0713 19.5039 28.0742 19.4124 28.0565 19.3238C28.0389 19.2352 28.0011 19.1519 27.9461 19.0803C27.891 19.0086 27.8203 18.9506 27.7393 18.9107C27.6583 18.8707 27.5692 18.8499 27.4789 18.8499H18.8544V15.3148V15.316ZM5.45455 21.0747C6.51215 23.6305 8.42381 25.74 10.8633 27.0431C13.3027 28.3463 16.1188 28.7624 18.8308 28.2203C21.0414 27.7835 23.0831 26.7294 24.7195 25.1801L27.3363 27.3095C25.1975 29.4644 22.4646 30.9324 19.4871 31.5257C12.6098 32.8938 5.7114 29.3917 2.70224 23.1345L5.45455 21.0747Z" fill="white"/>
</svg>
